<svg xmlns="http://www.w3.org/2000/svg" width="23" height="43" viewBox="0 0 23 43"><g><g><path fill="#fff" d="M22.134.008l-5.517-.01c-6.198 0-10.202 4.154-10.202 10.584v4.878H.868a.873.873 0 0 0-.868.878v7.07c0 .484.389.876.868.876h5.546v17.839c0 .485.388.877.868.877h7.236c.48 0 .868-.393.868-.877V24.284h6.485c.479 0 .867-.392.867-.876l.003-7.07a.882.882 0 0 0-.254-.62.864.864 0 0 0-.614-.258h-6.487v-4.135c0-1.988.469-2.998 3.03-2.998l3.717-.001A.872.872 0 0 0 23 7.449V.885a.872.872 0 0 0-.866-.877z"/></g></g></svg>