<svg xmlns="http://www.w3.org/2000/svg" width="44" height="44" viewBox="0 0 44 44"><g><g><path fill="#fff" d="M44 12.142v19.715C44 38.552 38.553 44 31.857 44H12.142C5.447 44 0 38.553 0 31.857V12.142C0 5.447 5.447-.001 12.142-.001h19.715C38.553 0 44 5.447 44 12.142zm-3.904 19.715V12.142c0-4.543-3.696-8.24-8.239-8.24H12.142c-4.543 0-8.238 3.697-8.238 8.24v19.715c0 4.542 3.695 8.239 8.238 8.239h19.715c4.543 0 8.24-3.697 8.24-8.239zM33.337 22c0 6.252-5.086 11.338-11.337 11.338-6.252 0-11.338-5.086-11.338-11.338 0-6.252 5.086-11.338 11.338-11.338 6.251 0 11.337 5.086 11.337 11.338zm-3.903 0c0-4.1-3.335-7.434-7.434-7.434-4.1 0-7.434 3.335-7.434 7.434 0 4.098 3.335 7.433 7.434 7.433s7.434-3.335 7.434-7.433zm6.404-13.81c.533.531.838 1.27.838 2.025 0 .752-.305 1.491-.838 2.025-.534.53-1.27.838-2.025.838a2.886 2.886 0 0 1-2.022-.838 2.886 2.886 0 0 1-.84-2.025c0-.755.306-1.494.84-2.025a2.873 2.873 0 0 1 2.022-.838c.755 0 1.494.304 2.025.838z"/></g></g></svg>